<?xml version="1.0" encoding="UTF-8" standalone="no"?>
<svg
   xmlns:v="http://schemas.microsoft.com/visio/2003/SVGExtensions/"
   xmlns:dc="http://purl.org/dc/elements/1.1/"
   xmlns:cc="http://creativecommons.org/ns#"
   xmlns:rdf="http://www.w3.org/1999/02/22-rdf-syntax-ns#"
   xmlns:svg="http://www.w3.org/2000/svg"
   xmlns="http://www.w3.org/2000/svg"
   style="font-size:12px;overflow:visible;color-interpolation-filters:sRGB;fill:none;fill-rule:evenodd;stroke-linecap:square;stroke-miterlimit:3"
   version="1.1"
   id="svg2"
   class="st2"
   xml:space="preserve"
   viewBox="0 0 250.93599 251.00938"
   height="3.4862363in"
   width="3.4852083in"><metadata
     id="metadata126"><rdf:RDF><cc:Work
         rdf:about=""><dc:format>image/svg+xml</dc:format><dc:type
           rdf:resource="http://purl.org/dc/dcmitype/StillImage" /><dc:title></dc:title></cc:Work></rdf:RDF></metadata><defs
     id="defs124" /><v:documentProperties
     v:viewMarkup="false"
     v:metric="true"
     v:langID="1060"><v:userDefs><v:ud
         v:val="VT0(1):26"
         v:nameU="msvNoAutoConnect" /></v:userDefs></v:documentProperties><style
     id="style4"
     type="text/css"><![CDATA[
		.st1 {fill:#d9230f;stroke:none;stroke-linecap:butt;stroke-width:0.75}
		.st2 {fill:none;fill-rule:evenodd;font-size:12px;overflow:visible;stroke-linecap:square;stroke-miterlimit:3}
	]]></style><g
     transform="translate(-737.97223,-127.58003)"
     id="g6"
     v:groupContext="foregroundPage"
     v:index="1"
     v:mID="0"><title
       id="title8">Page-1</title><v:pageProperties
       v:shadowOffsetY="-8.50394"
       v:shadowOffsetX="8.50394"
       v:drawingUnits="24"
       v:pageScale="0.0393701"
       v:drawingScale="0.0393701" /><g
       v:groupContext="group"
       v:mID="12"
       transform="translate(721.701,-463.301)"
       id="group12-1"><title
         id="title11">Web App (was websites)</title><g
         v:groupContext="group"
         v:mID="13"
         id="group13-2"><title
           id="title14">Sheet.13</title><g
           v:groupContext="shape"
           v:mID="14"
           id="shape14-3"><title
             id="title17">Sheet.14</title><path
             style="fill:#d9230f;stroke:none;stroke-width:0.75;stroke-linecap:butt"
             id="path19"
             class="st1"
             d="m 208.06,803.08 c -19.78,15.11 -43.11,22.52 -66.21,22.52 -32.89,0 -65.34,-14.74 -86.81,-42.81 -36.66,-47.93 -27.63,-116.36 20.37,-153.1 19.77,-15.18 43.1,-22.44 66.21,-22.44 32.89,0 65.32,14.74 86.81,42.81 36.67,47.84 27.55,116.36 -20.37,153.02 z m 33.33,-163.03 c -24.74,-32.29 -62.06,-49.17 -99.77,-49.17 -26.52,0 -53.48,8.44 -76.22,25.84 C 10.45,658.94 0,737.68 42.15,792.71 c 24.66,32.29 61.99,49.18 99.69,49.18 26.59,0 53.48,-8.37 76.21,-25.85 54.97,-42.14 65.41,-120.95 23.34,-175.99 z" /></g></g><g
         v:groupContext="group"
         v:mID="15"
         transform="translate(45.0503,-38.922)"
         id="group15-5"><title
           id="title22">Sheet.15</title><g
           v:groupContext="group"
           v:mID="16"
           transform="translate(3.10732,-1.56278)"
           id="group16-6"><title
             id="title25">Sheet.16</title><g
             v:groupContext="group"
             v:mID="17"
             transform="translate(3.97498,0)"
             id="group17-7"><title
               id="title28">Sheet.17</title><g
               v:groupContext="shape"
               v:mID="18"
               id="shape18-8"><title
                 id="title31">Sheet.18</title><path
                 style="fill:#d9230f;stroke:none;stroke-width:0.75;stroke-linecap:butt"
                 id="path33"
                 class="st1"
                 d="M 32.89,779.67 C 25.63,772.48 19.78,765.6 15.11,758.86 4.59,780.27 0.89,802.27 0,819.82 c 1.04,1.41 1.04,2.51 2.08,3.92 5.25,6.67 11.85,13.04 18.22,18.15 -0.97,-14.37 0.36,-37.85 12.59,-62.22 z" /></g></g><g
             transform="translate(29.9285,-79.493)"
             v:groupContext="shape"
             v:mID="19"
             id="shape19-10"><title
               id="title36">Sheet.19</title><path
               style="fill:#d9230f;stroke:none;stroke-width:0.75;stroke-linecap:butt"
               id="path38"
               class="st1"
               d="m 44.89,775.52 c -9.85,6.81 -20,15.48 -30.22,26.37 -5.63,5.92 -10.45,12 -14.67,18.15 4.37,7.04 10.07,14.29 17.26,21.85 5.41,-7.63 12,-15.26 20,-22.74 10.07,-9.41 19.56,-16.96 28.44,-23.04 -7.26,-6.74 -14.3,-13.56 -20.81,-20.59 z" /></g><g
             v:groupContext="group"
             v:mID="20"
             transform="translate(90.3197,-134.562)"
             id="group20-12"><title
               id="title41">Sheet.20</title><g
               v:groupContext="shape"
               v:mID="21"
               id="shape21-13"><title
                 id="title44">Sheet.21</title><path
                 style="fill:#d9230f;stroke:none;stroke-width:0.75;stroke-linecap:butt"
                 id="path46"
                 class="st1"
                 d="M 88.8,823.52 C 84.07,817.45 78.73,812.19 73.1,807.37 56.21,804.78 29.99,805.07 0,821 c 6.89,7.41 13.7,14.37 20.37,20.89 39.99,-21.55 68.43,-18.37 68.43,-18.37 z" /></g></g><g
             v:groupContext="group"
             v:mID="22"
             transform="translate(0,-83.0632)"
             id="group22-15"><title
               id="title49">Sheet.22</title><g
               v:groupContext="shape"
               v:mID="23"
               id="shape23-16"><title
                 id="title52">Sheet.23</title><path
                 style="fill:#d9230f;stroke:none;stroke-width:0.75;stroke-linecap:butt"
                 id="path54"
                 class="st1"
                 d="m 19.11,841.89 c 3.03,-6.08 6.66,-12.22 10.81,-18.3 C 12.74,796.41 13.55,773.97 15.4,763.45 11.11,767.97 7.11,772.64 3.62,777.67 0.15,791.89 0,814.56 19.11,841.89 Z" /></g></g><g
             v:groupContext="group"
             v:mID="24"
             transform="translate(36.8316,-6.55474)"
             id="group24-18"><title
               id="title57">Sheet.24</title><g
               v:groupContext="shape"
               v:mID="25"
               id="shape25-19"><title
                 id="title60">Sheet.25</title><path
                 style="fill:#d9230f;stroke:none;stroke-width:0.75;stroke-linecap:butt"
                 id="path62"
                 class="st1"
                 d="m 31.04,787.81 c -8,-6.37 -14.81,-12.74 -20.67,-18.88 -4.15,5.78 -7.55,11.55 -10.37,17.26 5.48,5.55 11.78,11.11 18.96,16.89 44.74,35.47 89.25,38.81 114.21,38.81 1.63,0 9.48,-10.59 14,-17.19 -11.18,2.29 -58.95,8.36 -116.13,-36.89 z" /></g></g><g
             v:groupContext="group"
             v:mID="26"
             transform="translate(19.1217,-62.2559)"
             id="group26-21"><title
               id="title65">Sheet.26</title><g
               v:groupContext="shape"
               v:mID="27"
               id="shape27-22"><title
                 id="title68">Sheet.27</title><path
                 style="fill:#d9230f;stroke:none;stroke-width:0.75;stroke-linecap:butt"
                 id="path70"
                 class="st1"
                 d="m 0,821.08 c 4.67,6.74 10.45,13.63 17.7,20.81 2.82,-5.7 6.3,-11.48 10.38,-17.26 C 20.89,817.07 15.19,809.82 10.82,802.78 6.59,808.86 3.03,815.01 0,821.08 Z" /></g></g><g
             v:groupContext="group"
             v:mID="28"
             transform="translate(95.6318,-47.139)"
             id="group28-24"><title
               id="title73">Sheet.28</title><g
               v:groupContext="shape"
               v:mID="29"
               id="shape29-25"><title
                 id="title76">Sheet.29</title><path
                 style="fill:#d9230f;stroke:none;stroke-width:0.75;stroke-linecap:butt"
                 id="path78"
                 class="st1"
                 d="m 0,763.74 c 40.81,37.7 89.1,69.78 101.4,78.15 1.26,-3.11 2.08,-6.15 2.96,-9.33 -13.19,-9.78 -47.85,-36.81 -89.33,-78.07 -4.8,2.58 -9.84,5.7 -15.03,9.25 z" /></g></g><g
             v:groupContext="group"
             v:mID="30"
             transform="translate(45.339,-145.858)"
             id="group30-27"><title
               id="title81">Sheet.30</title><g
               v:groupContext="shape"
               v:mID="31"
               id="shape31-28"><title
                 id="title84">Sheet.31</title><path
                 style="fill:#d9230f;stroke:none;stroke-width:0.75;stroke-linecap:butt"
                 id="path86"
                 class="st1"
                 d="m 44.97,832.25 c -10,-10.44 -20.15,-21.62 -30.52,-33.62 -4.97,1.55 -9.78,3.56 -14.45,5.85 7.63,12.52 17.92,25.11 29.48,37.41 5.27,-3.71 10.38,-6.9 15.49,-9.64 z" /></g></g><g
             transform="translate(73.9784,-124.419)"
             v:groupContext="shape"
             v:mID="32"
             id="shape32-30"><title
               id="title89">Sheet.32</title><path
               style="fill:#d9230f;stroke:none;stroke-width:0.75;stroke-linecap:butt"
               id="path91"
               class="st1"
               d="m 16.98,810.52 c -5.11,2.74 -11.8,6.8 -16.98,10.51 6.52,6.96 13.15,14.12 20.41,20.86 5.26,-3.56 12.2,-7.86 17.01,-10.52 -6.67,-6.45 -13.55,-13.44 -20.44,-20.85 z" /></g><g
             transform="translate(73.9718,-124.007)"
             v:groupContext="shape"
             v:mID="33"
             id="shape33-32"><title
               id="title94">Sheet.33</title><path
               style="fill:#d9230f;stroke:none;stroke-width:0.75;stroke-linecap:butt"
               id="path96"
               class="st1"
               d="m 15.14,809.15 c -5.11,2.74 -9.95,6.28 -15.14,9.98 6.52,6.96 15.79,16.02 23.05,22.76 5.26,-3.56 9.56,-7.15 14.37,-9.82 -6.66,-6.45 -15.4,-15.51 -22.28,-22.92 z" /></g></g><g
           v:groupContext="group"
           v:mID="34"
           transform="translate(135.106,-55.2267)"
           id="group34-34"><title
             id="title99">Sheet.34</title><g
             v:groupContext="shape"
             v:mID="35"
             id="shape35-35"><title
               id="title102">Sheet.35</title><path
               style="fill:#d9230f;stroke:none;stroke-width:0.75;stroke-linecap:butt"
               id="path104"
               class="st1"
               d="M 12.22,796.85 C 2,804.7 0,819.44 7.85,829.67 c 7.92,10.37 22.66,12.22 32.96,4.44 10.22,-7.85 12.23,-22.59 4.37,-32.89 C 37.26,791 22.6,788.92 12.22,796.85 Z" /></g></g><g
           v:groupContext="group"
           v:mID="36"
           transform="translate(87.7363,0)"
           id="group36-37"><title
             id="title107">Sheet.36</title><g
             v:groupContext="shape"
             v:mID="37"
             id="shape37-38"><title
               id="title110">Sheet.37</title><path
               style="fill:#d9230f;stroke:none;stroke-width:0.75;stroke-linecap:butt"
               id="path112"
               class="st1"
               d="M 11.26,800.19 C 1.78,807.45 0,821.15 7.19,830.63 c 7.33,9.48 20.96,11.26 30.52,4 9.48,-7.26 11.26,-20.89 4,-30.37 -7.26,-9.55 -20.89,-11.33 -30.45,-4.07 z" /></g></g><g
           v:groupContext="group"
           v:mID="38"
           transform="translate(0,-47.5023)"
           id="group38-40"><title
             id="title115">Sheet.38</title><g
             v:groupContext="shape"
             v:mID="39"
             id="shape39-41"><title
               id="title118">Sheet.39</title><path
               style="fill:#d9230f;stroke:none;stroke-width:0.75;stroke-linecap:butt"
               id="path120"
               class="st1"
               d="M 17.18,778.49 C 2.73,789.6 0,810.19 11.04,824.63 c 11.1,14.52 31.84,17.26 46.29,6.15 14.45,-11.03 17.18,-31.7 6.14,-46.29 -11.11,-14.3 -31.84,-17.11 -46.29,-6 z" /></g></g></g></g></g></svg>