<?xml version="1.0" encoding="UTF-8" standalone="no"?>
<svg
   xmlns:dc="http://purl.org/dc/elements/1.1/"
   xmlns:cc="http://creativecommons.org/ns#"
   xmlns:rdf="http://www.w3.org/1999/02/22-rdf-syntax-ns#"
   xmlns:svg="http://www.w3.org/2000/svg"
   xmlns="http://www.w3.org/2000/svg"
   height="305.21899"
   width="375"
   id="svg2"
   xml:space="preserve"
   viewBox="0 0 375 305.219"
   version="1.1"><metadata
     id="metadata42"><rdf:RDF><cc:Work
         rdf:about=""><dc:format>image/svg+xml</dc:format><dc:type
           rdf:resource="http://purl.org/dc/dcmitype/StillImage" /><dc:title></dc:title></cc:Work></rdf:RDF></metadata><defs
     id="defs40" /><g
     transform="translate(-62.5,-97.395)"
     id="window-charts-graphs"><g
       id="g5"><g
         id="_x32_3_1_"><g
           id="icon_3_"><rect
             id="rect11"
             y="211.33701"
             x="120.742"
             width="6.2030001"
             style="fill:#d9230f"
             height="2.073" /><rect
             id="rect13"
             y="225.30499"
             x="120.742"
             width="6.2030001"
             style="fill:#d9230f"
             height="2.0799999" /><rect
             id="rect15"
             y="239.265"
             x="120.742"
             width="6.2030001"
             style="fill:#d9230f"
             height="2.072" /><rect
             id="rect17"
             y="253.23199"
             x="120.742"
             width="6.2030001"
             style="fill:#d9230f"
             height="2.0710001" /><rect
             id="rect19"
             y="267.203"
             x="120.742"
             width="6.2030001"
             style="fill:#d9230f"
             height="2.0639999" /><path
             id="path21"
             style="fill:#d9230f"
             d="m 237.637,274.951 c -6.958,0 -13.484,1.832 -19.145,4.996 l 0,-61.887 -10.855,0 0,70.852 c -1.707,1.992 -3.215,4.16 -4.482,6.475 l -4.834,0 0,-49.919 -10.861,0 0,49.919 -9.303,0 0,-64.904 -10.869,0 0,64.904 -9.309,0 0,-83.01 -10.861,0 0,83.01 -13.184,0 0,-91.806 -2.857,0 0,94.648 70.686,0 c -2.197,4.893 -3.442,10.326 -3.442,16.039 0,21.709 17.593,39.316 39.316,39.316 21.701,0 39.302,-17.608 39.302,-39.316 0,-21.709 -17.601,-39.317 -39.302,-39.317 z m 0,39.317 -2.938,31.289 c -15.996,-1.465 -28.513,-14.897 -28.513,-31.289 0,-17.373 14.069,-31.449 31.45,-31.449 7.295,0 13.996,2.504 19.328,6.68 l -19.327,24.769 z" /></g><g
           id="g23"><g
             id="g25"><path
               id="path27"
               style="fill:#d9230f"
               d="m 414.246,97.395 -328.499,0 c -12.832,0 -23.247,10.393 -23.247,23.239 l 0,258.718 c 0,12.861 10.415,23.262 23.247,23.262 l 328.499,0 c 12.832,0 23.254,-10.4 23.254,-23.262 l 0,-258.718 c 0,-12.847 -10.422,-23.239 -23.254,-23.239 z m -73.551,21.87 24.676,0 0,23.767 -24.676,0 0,-23.767 z m -43.058,0 24.668,0 0,23.767 -24.668,0 0,-23.767 z m 110.786,254.286 -316.846,0 0,-205.727 316.846,0 0,205.727 z m 0,-230.52 -24.653,0 0,-23.767 24.653,0 0,23.767 z" /></g></g><g
           id="g29"><path
             id="path31"
             style="fill:#d9230f"
             d="m 275.262,244.934 107.409,0 c 6.569,0 6.569,-11.25 0,-11.25 l -107.409,0 c -6.556,0 -6.556,11.25 0,11.25 z" /><path
             id="path33"
             style="fill:#d9230f"
             d="m 275.262,216.823 107.409,0 c 6.569,0 6.569,-11.243 0,-11.243 l -107.409,0 c -6.556,0 -6.556,11.243 0,11.243 z" /><path
             id="path35"
             style="fill:#d9230f"
             d="m 275.262,273.047 107.409,0 c 6.569,0 6.569,-11.25 0,-11.25 l -107.409,0 c -6.556,0 -6.556,11.25 0,11.25 z" /></g></g></g></g><g
     transform="translate(-62.5,-97.395)"
     id="Layer_1" /></svg>