<?xml version="1.0" encoding="UTF-8" standalone="no"?>
<svg
   xmlns:v="http://schemas.microsoft.com/visio/2003/SVGExtensions/"
   xmlns:dc="http://purl.org/dc/elements/1.1/"
   xmlns:cc="http://creativecommons.org/ns#"
   xmlns:rdf="http://www.w3.org/1999/02/22-rdf-syntax-ns#"
   xmlns:svg="http://www.w3.org/2000/svg"
   xmlns="http://www.w3.org/2000/svg"
   width="2.5590277in"
   height="2.5529165in"
   viewBox="0 0 184.24997 183.80999"
   xml:space="preserve"
   class="st2"
   id="svg2"
   version="1.1"
   style="font-size:12px;overflow:visible;color-interpolation-filters:sRGB;fill:none;fill-rule:evenodd;stroke-linecap:square;stroke-miterlimit:3"><metadata
     id="metadata27"><rdf:RDF><cc:Work
         rdf:about=""><dc:format>image/svg+xml</dc:format><dc:type
           rdf:resource="http://purl.org/dc/dcmitype/StillImage" /><dc:title></dc:title></cc:Work></rdf:RDF></metadata><defs
     id="defs25" /><v:documentProperties
     v:langID="1060"
     v:metric="true"
     v:viewMarkup="false" /><style
     type="text/css"
     id="style4"><![CDATA[
		.st1 {fill:#d9230f;stroke:none;stroke-linecap:butt;stroke-width:2.67834}
		.st2 {fill:none;fill-rule:evenodd;font-size:12px;overflow:visible;stroke-linecap:square;stroke-miterlimit:3}
	]]></style><g
     style="fill:#ffffff"
     v:mID="0"
     v:index="1"
     v:groupContext="foregroundPage"
     id="g6"
     transform="translate(-118.75501,-2.6750122)"><title
       id="title8">Page-1</title><v:pageProperties
       v:drawingScale="0.0393701"
       v:pageScale="0.0393701"
       v:drawingUnits="24"
       v:shadowOffsetX="8.50394"
       v:shadowOffsetY="-8.50394" /><g
       style="fill:#ffffff"
       id="group23-1"
       transform="translate(118.755,-176.935)"
       v:mID="23"
       v:groupContext="group"><title
         id="title11">Logic App</title><g
         style="fill:#ffffff"
         id="shape24-2"
         v:mID="24"
         v:groupContext="shape"><title
           id="title14">Sheet.24</title><path
           d="m 33.38,363.42 32.93,-12.91 11.57,11.57 54.75,0 0,-76.54 4,-3.12 c 30.71,-26.26 47.62,-60.08 47.62,-96.13 l 0,-6.68 -6.67,0 c -36.5,0 -70.32,16.92 -96.14,47.62 l -4,4.45 -75.66,0 0,54.75 L 13.35,298 0,330.93 33.38,363.42 Z m -16.91,-35.16 7.56,-19.58 32.05,32.04 -19.59,7.57 -20.02,-20.03 z m 102.8,20.92 -36.49,0 -6.68,-6.68 43.17,-43.61 0,50.29 z M 151.32,248.15 116.6,213.44 c 16.03,-12.46 35.16,-19.59 54.75,-20.92 -1.34,20.03 -8.46,38.72 -20.03,55.63 z M 91.68,235.69 c 4.45,-5.34 9.35,-10.24 14.24,-15.13 l 36.5,36.49 c -4.45,5.34 -9.79,10.24 -15.13,15.13 L 66.76,333.6 30.26,297.11 91.68,235.69 Z m -76.99,9.35 50.73,0 -43.61,43.17 -6.68,-6.68 c -0.44,-0.44 -0.44,-36.49 -0.44,-36.49 z"
           class="st1"
           id="path16"
           style="fill:#ffffff;stroke:none;stroke-width:2.67833996;stroke-linecap:butt" /></g><g
         style="fill:#ffffff"
         id="shape25-4"
         v:mID="25"
         v:groupContext="shape"
         transform="translate(86.7853,-86.3403)"><title
           id="title19">Sheet.25</title><circle
           cx="12.9065"
           cy="350.513"
           class="st1"
           id="ellipse21"
           r="12.9065"
           style="fill:#ffffff;stroke:none;stroke-width:2.67833996;stroke-linecap:butt" /></g></g></g></svg>