<?xml version="1.0" encoding="UTF-8" standalone="no"?>
<svg
   xmlns:v="http://schemas.microsoft.com/visio/2003/SVGExtensions/"
   xmlns:dc="http://purl.org/dc/elements/1.1/"
   xmlns:cc="http://creativecommons.org/ns#"
   xmlns:rdf="http://www.w3.org/1999/02/22-rdf-syntax-ns#"
   xmlns:svg="http://www.w3.org/2000/svg"
   xmlns="http://www.w3.org/2000/svg"
   style="font-size:12px;overflow:visible;color-interpolation-filters:sRGB;fill:none;fill-rule:evenodd;stroke-linecap:square;stroke-miterlimit:3"
   version="1.1"
   id="svg2"
   class="st2"
   xml:space="preserve"
   viewBox="0 0 212.60001 178.48998"
   height="2.4790244in"
   width="2.9527738in"><metadata
     id="metadata41"><rdf:RDF><cc:Work
         rdf:about=""><dc:format>image/svg+xml</dc:format><dc:type
           rdf:resource="http://purl.org/dc/dcmitype/StillImage" /><dc:title></dc:title></cc:Work></rdf:RDF></metadata><defs
     id="defs39" /><v:documentProperties
     v:viewMarkup="false"
     v:metric="true"
     v:langID="1060" /><style
     id="style4"
     type="text/css"><![CDATA[
		.st1 {fill:#d9230f;stroke:none;stroke-linecap:butt;stroke-width:0.75}
		.st2 {fill:none;fill-rule:evenodd;font-size:12px;overflow:visible;stroke-linecap:square;stroke-miterlimit:3}
	]]></style><g
     transform="translate(-130.326,-0.74902441)"
     id="g6"
     v:groupContext="foregroundPage"
     v:index="1"
     v:mID="0"><title
       id="title8">Page-1</title><v:pageProperties
       v:shadowOffsetY="-8.50394"
       v:shadowOffsetX="8.50394"
       v:drawingUnits="24"
       v:pageScale="0.0393701"
       v:drawingScale="0.0393701" /><g
       v:groupContext="group"
       v:mID="1"
       transform="translate(130.326,-226.271)"
       id="group1-1"><title
         id="title11">Cloud Service</title><g
         v:groupContext="group"
         v:mID="2"
         transform="translate(125.801,-97.1804)"
         id="group2-2"><title
           id="title14">Sheet.2</title><g
           v:groupContext="shape"
           v:mID="3"
           id="shape3-3"><title
             id="title17">Sheet.3</title><circle
             style="fill:#d9230f;stroke:none;stroke-width:0.75;stroke-linecap:butt"
             r="10.238"
             id="ellipse19"
             class="st1"
             cy="395.272"
             cx="10.238" /></g></g><g
         v:groupContext="group"
         v:mID="4"
         transform="translate(72.4466,-62.4695)"
         id="group4-5"><title
           id="title22">Sheet.4</title><g
           v:groupContext="shape"
           v:mID="5"
           id="shape5-6"><title
             id="title25">Sheet.5</title><path
             style="fill:#d9230f;stroke:none;stroke-width:0.75;stroke-linecap:butt"
             id="path27"
             class="st1"
             d="M 10.26,385.04 C 4.61,385.04 0,389.65 0,395.3 c 0,5.66 4.6,10.21 10.26,10.21 5.66,0 10.21,-4.49 10.21,-10.21 0,-5.65 -4.5,-10.26 -10.21,-10.26 z" /></g></g><g
         v:groupContext="group"
         v:mID="6"
         id="group6-8"><title
           id="title30">Sheet.6</title><g
           v:groupContext="shape"
           v:mID="7"
           id="shape7-9"><title
             id="title33">Sheet.7</title><path
             style="fill:#d9230f;stroke:none;stroke-width:0.75;stroke-linecap:butt"
             id="path35"
             class="st1"
             d="m 169.34,301.62 -9.38,3.17 -2.38,4.98 3.54,7.38 0.45,1.05 -5.22,5.11 -8.48,-3.99 -5.05,2.1 -2.61,7.72 -0.34,1 -7.32,0 -3.16,-8.82 -4.99,-2 -7.32,3.72 -1,0.44 -5.16,-5.05 3.94,-8.59 -2.11,-5 -6.54,-2.6 0.22,-0.33 0,-7.27 7.6,-3.21 1.44,-5.05 -4.05,-7.32 -0.61,-1 5.1,-5.16 8.43,4.05 5.05,-2.05 2.5,-7.21 0.38,-0.44 7.27,0 3.22,8.26 4.99,1.72 7.37,-3.88 0.95,-0.56 5.15,5.16 -3.93,8.44 2,5.04 8.37,2.5 1.67,0.38 0,7.31 0.01,0 z m -118.81,27.68 8.88,-3.16 2.1,-5.05 -3.71,-7.32 -0.5,-1 5.16,-5.16 8.54,4.05 5,-2.1 2.54,-7.1 0.34,-0.28 7.37,0 3.11,8.1 5.05,1.77 7.32,-3.94 1,-0.61 5.16,5.16 -4,8.43 2.11,5.05 7.1,2.5 0.28,0.38 0,7.32 -8.04,3.16 -1.78,5.05 3.94,7.33 0.56,0.94 -5.11,5.21 -8.54,-3.99 -4.99,2.11 -2.55,7.82 -0.39,1.11 -7.21,0 -3.27,-8.88 -4.99,-2.16 -7.33,3.72 -0.99,0.44 -5.16,-5.16 3.99,-8.43 -2.05,-5.05 -7.88,-2.6 -1.05,-0.33 0,-7.33 -0.01,0 z m 134.72,-37.1 -3.93,-1.28 1.05,-4 c 1,-3.99 1.56,-8.04 1.56,-12.14 0,-26.35 -21.47,-47.76 -47.87,-47.76 -19.36,0 -36.72,11.48 -44.15,29.34 l -2.77,6.49 -4.5,-5.38 c -6.32,-7.37 -15.3,-11.48 -24.9,-11.48 -17.92,0 -32.56,14.59 -32.56,32.56 0,3 0.44,5.99 1.16,8.93 l 1.17,3.88 -3.78,1.39 C 9.65,298.68 0,311.66 0,327.75 c 0,20.96 17.25,37.33 39.21,37.33 l 9.76,0 c -0.27,0 -0.49,3.66 -0.49,5.43 0,19.31 15.75,35 34.94,35 14.09,0 26.73,-8.37 32.23,-21.36 l 1.99,-4.77 3.39,3.94 c 4.55,5.39 11.2,8.43 18.08,8.43 13.14,0 23.85,-10.81 23.85,-23.96 0,-0.94 -0.06,-2.71 -0.22,-2.71 l 10.7,0 c 22.02,0 39.16,-16.37 39.16,-37.33 0,-16.69 -10.43,-30.29 -27.35,-35.55 z" /></g></g></g></g></svg>