<?xml version="1.0" encoding="UTF-8" standalone="no"?>
<svg
   xmlns:dc="http://purl.org/dc/elements/1.1/"
   xmlns:cc="http://creativecommons.org/ns#"
   xmlns:rdf="http://www.w3.org/1999/02/22-rdf-syntax-ns#"
   xmlns:svg="http://www.w3.org/2000/svg"
   xmlns="http://www.w3.org/2000/svg"
   height="182.30119"
   id="Layer_1"
   version="1.1"
   viewBox="0 0 182.41754 182.30119"
   width="182.41754"
   xml:space="preserve"><metadata
     id="metadata32"><rdf:RDF><cc:Work
         rdf:about=""><dc:format>image/svg+xml</dc:format><dc:type
           rdf:resource="http://purl.org/dc/dcmitype/StillImage" /><dc:title></dc:title></cc:Work></rdf:RDF></metadata><defs
     id="defs30" /><g
     id="g23"
     transform="matrix(4.0438721,0,0,4.0438721,-173.93125,-137.15662)"><path
       d="m 46.426,78.998 c -1.465,0 -2.644,-0.746 -3.152,-1.996 -0.847,-2.078 0.374,-4.936 3.35,-7.842 2.33,-2.276 5.584,-4.149 9.677,-5.573 2.177,-4.04 4.18,-8.366 5.585,-12.064 -3.111,-4.839 -3.685,-10.813 -2.597,-14.151 0.704,-2.159 1.923,-2.971 2.82,-3.272 1.252,-0.421 2.53,-0.106 3.421,0.852 1.343,1.444 1.835,4.352 1.506,8.89 -0.131,1.809 -0.732,4.238 -1.79,7.231 0.046,0.058 0.093,0.115 0.14,0.172 0.706,0.863 1.459,1.812 2.248,2.807 1.684,2.123 3.576,4.508 5.5,6.646 0.569,-0.018 1.117,-0.026 1.646,-0.026 6.798,0 11.363,1.422 12.854,4.004 0.636,1.101 0.649,2.34 0.037,3.4 -0.826,1.431 -2.613,2.285 -4.781,2.285 l -0.001,0 c -0.525,0 -1.068,-0.051 -1.613,-0.152 -2.732,-0.504 -5.731,-2.56 -9.404,-6.455 -0.939,0.051 -1.922,0.125 -2.93,0.223 -2.165,0.208 -6.343,0.753 -10.573,2.086 -1.82,3.287 -5.737,9.926 -8.658,11.835 -1.105,0.72 -2.239,1.1 -3.285,1.1 z m 7.462,-11.184 c -2.095,1.012 -3.824,2.18 -5.169,3.493 -2.643,2.582 -2.815,4.2 -2.667,4.563 0.043,0.105 0.228,0.127 0.374,0.127 0.448,0 1.047,-0.223 1.642,-0.611 1.306,-0.853 3.462,-3.684 5.82,-7.572 z m 22.165,-4.123 c 2.264,2.099 4.164,3.272 5.766,3.568 0.366,0.067 0.726,0.102 1.068,0.102 0.001,0 0.001,0 0.001,0 1.188,0 1.965,-0.407 2.184,-0.785 0.04,-0.071 0.097,-0.167 -0.038,-0.4 -0.504,-0.871 -2.96,-2.306 -8.981,-2.485 z M 64.009,54.316 c -1.047,2.574 -2.322,5.356 -3.708,8.093 3.437,-0.851 6.553,-1.245 8.352,-1.418 0.234,-0.022 0.467,-0.044 0.698,-0.064 -1.431,-1.686 -2.807,-3.42 -4.068,-5.01 -0.436,-0.55 -0.862,-1.086 -1.274,-1.601 z m -0.8,-17.4 c -0.022,0 -0.071,0.004 -0.146,0.029 -0.338,0.113 -0.683,0.621 -0.923,1.359 -0.72,2.208 -0.434,5.923 1.065,9.346 0.477,-1.622 0.762,-2.985 0.837,-4.023 0.366,-5.049 -0.451,-6.352 -0.711,-6.63 -0.073,-0.081 -0.1,-0.081 -0.122,-0.081 z"
       style="fill:#d9230f;fill-opacity:1"
       id="path25" /></g><rect
     height="128"
     id="_x3C_Slice_x3E__11_"
     style="fill:none"
     width="128"
     x="62.525665"
     y="-8.4679995" /></svg>