<?xml version="1.0" encoding="UTF-8" standalone="no"?>
<svg
   xmlns:v="http://schemas.microsoft.com/visio/2003/SVGExtensions/"
   xmlns:dc="http://purl.org/dc/elements/1.1/"
   xmlns:cc="http://creativecommons.org/ns#"
   xmlns:rdf="http://www.w3.org/1999/02/22-rdf-syntax-ns#"
   xmlns:svg="http://www.w3.org/2000/svg"
   xmlns="http://www.w3.org/2000/svg"
   style="font-size:12px;overflow:visible;color-interpolation-filters:sRGB;fill:none;fill-rule:evenodd;stroke-linecap:square;stroke-miterlimit:3"
   version="1.1"
   id="svg2"
   class="st2"
   xml:space="preserve"
   viewBox="0 0 221.10992 204.01999"
   height="2.8336108in"
   width="3.070972in"><metadata
     id="metadata49"><rdf:RDF><cc:Work
         rdf:about=""><dc:format>image/svg+xml</dc:format><dc:type
           rdf:resource="http://purl.org/dc/dcmitype/StillImage" /><dc:title></dc:title></cc:Work></rdf:RDF></metadata><defs
     id="defs47" /><v:documentProperties
     v:viewMarkup="false"
     v:metric="true"
     v:langID="1060" /><style
     id="style4"
     type="text/css"><![CDATA[
		.st1 {fill:#d9230f;stroke:none;stroke-linecap:butt;stroke-width:0.75}
		.st2 {fill:none;fill-rule:evenodd;font-size:12px;overflow:visible;stroke-linecap:square;stroke-miterlimit:3}
	]]></style><g
     transform="translate(-141.6821,-10.967)"
     id="g6"
     v:groupContext="foregroundPage"
     v:index="1"
     v:mID="0"><title
       id="title8">Page-1</title><v:pageProperties
       v:shadowOffsetY="-8.50394"
       v:shadowOffsetX="8.50394"
       v:drawingUnits="24"
       v:pageScale="0.0393701"
       v:drawingScale="0.0393701" /><g
       v:groupContext="group"
       v:mID="40"
       transform="translate(141.682,-250.163)"
       id="group40-1"><title
         id="title11">VM symbol only</title><g
         v:groupContext="shape"
         v:mID="41"
         id="shape41-2"><title
           id="title14">Sheet.41</title><path
           style="fill:#d9230f;stroke:none;stroke-width:0.75;stroke-linecap:butt"
           id="path16"
           class="st1"
           d="m 207.74,261.13 -195.72,0 C 5.33,261.13 0,267.07 0,273.68 l 0,136.47 c 0,6.62 5.33,12.49 12.02,12.49 l 67.02,0 c 7.21,25.5 -2.51,29.15 -45.03,29.15 l 0,13.36 54.06,0 39.49,0 51.02,0 0,-13.36 c -42.51,0 -46.7,-3.65 -39.49,-29.15 l 68.65,0 c 6.62,0 13.37,-5.87 13.37,-12.49 l 0,-136.47 c 0,-6.61 -6.75,-12.55 -13.37,-12.55 z m -3.64,17.01 0,127.5 -187.09,0 0,-127.5 187.63,-0.34 -0.54,0.34 z" /></g><g
         v:groupContext="group"
         v:mID="42"
         transform="translate(70.5897,-81.8543)"
         id="group42-4"><title
           id="title19">Sheet.42</title><g
           v:groupContext="group"
           v:mID="43"
           transform="translate(3.50762,-45.011)"
           id="group43-5"><title
             id="title22">Sheet.43</title><g
             v:groupContext="shape"
             v:mID="44"
             id="shape44-6"><title
               id="title25">Sheet.44</title><path
               style="fill:#d9230f;stroke:none;stroke-width:0.75;stroke-linecap:butt"
               id="path27"
               class="st1"
               d="M 68.58,444.87 34.28,425.08 0,444.87 l 0,0.49 34.28,19.79 34.3,-19.79 0,-0.49 z" /></g></g><g
           v:groupContext="group"
           v:mID="45"
           transform="translate(41.3083,0)"
           id="group45-8"><title
             id="title30">Sheet.45</title><g
             v:groupContext="shape"
             v:mID="46"
             id="shape46-9"><title
               id="title33">Sheet.46</title><path
               style="fill:#d9230f;stroke:none;stroke-width:0.75;stroke-linecap:butt"
               id="path35"
               class="st1"
               d="m 0,426.03 0,39.12 34.3,-19.79 0,-39.13 -34.3,19.8 z" /></g></g><g
           v:groupContext="group"
           v:mID="47"
           id="group47-11"><title
             id="title38">Sheet.47</title><g
             v:groupContext="shape"
             v:mID="48"
             id="shape48-12"><title
               id="title41">Sheet.48</title><path
               style="fill:#d9230f;stroke:none;stroke-width:0.75;stroke-linecap:butt"
               id="path43"
               class="st1"
               d="M 34.3,426.03 0,406.23 l 0,39.13 34.3,19.79 0,-39.12 z" /></g></g></g></g></g></svg>