<?xml version="1.0" encoding="UTF-8" standalone="no"?>
<svg
   xmlns:dc="http://purl.org/dc/elements/1.1/"
   xmlns:cc="http://creativecommons.org/ns#"
   xmlns:rdf="http://www.w3.org/1999/02/22-rdf-syntax-ns#"
   xmlns:svg="http://www.w3.org/2000/svg"
   xmlns="http://www.w3.org/2000/svg"
   xmlns:sodipodi="http://sodipodi.sourceforge.net/DTD/sodipodi-0.dtd"
   xmlns:inkscape="http://www.inkscape.org/namespaces/inkscape"
   xml:space="preserve"
   width="427.01501"
   viewBox="0 0 427.01501 374.048"
   version="1.1"
   id="Layer_1"
   height="374.048"
   enable-background="new 0 0 500 500"
   inkscape:version="0.91 r13725"
   sodipodi:docname="docs_pushnotificatiosn.svg"><sodipodi:namedview
     pagecolor="#ffffff"
     bordercolor="#666666"
     borderopacity="1"
     objecttolerance="10"
     gridtolerance="10"
     guidetolerance="10"
     inkscape:pageopacity="0"
     inkscape:pageshadow="2"
     inkscape:window-width="1920"
     inkscape:window-height="1137"
     id="namedview6"
     showgrid="false"
     inkscape:zoom="0.63093506"
     inkscape:cx="-44.046733"
     inkscape:cy="187.024"
     inkscape:window-x="-8"
     inkscape:window-y="-8"
     inkscape:window-maximized="1"
     inkscape:current-layer="Layer_1" /><metadata
     id="metadata9"><rdf:RDF><cc:Work
         rdf:about=""><dc:format>image/svg+xml</dc:format><dc:type
           rdf:resource="http://purl.org/dc/dcmitype/StillImage" /><dc:title></dc:title></cc:Work></rdf:RDF></metadata><defs
     id="defs7" /><path
     style="clip-rule:evenodd;fill:#d9230f;fill-rule:evenodd;fill-opacity:1"
     id="path3"
     d="m 0,263.478 c 0,20.079 16.262,36.34 36.34,36.34 l 54.513,0 0,56.062 c 0,10.087 8.181,18.168 18.172,18.168 5.092,0 9.714,-2.095 12.989,-5.448 l 68.78,-68.781 199.881,0 c 20.078,0 36.34,-16.261 36.34,-36.34 l 0,-227.138 C 427.015,16.262 410.753,0 390.675,0 L 36.341,0 C 16.262,0 0.001,16.262 0.001,36.341 l 0,227.137 z M 109.026,158.996 c 0,-12.536 10.177,-22.713 22.713,-22.713 12.536,0 22.713,10.177 22.713,22.713 0,12.537 -10.177,22.713 -22.713,22.713 -12.537,0 -22.713,-10.177 -22.713,-22.713 z m 81.769,0 c 0,-12.536 10.177,-22.713 22.713,-22.713 12.537,0 22.715,10.177 22.715,22.713 0,12.537 -10.178,22.713 -22.715,22.713 -12.536,0 -22.713,-10.177 -22.713,-22.713 z m 81.769,0 c 0,-12.536 10.176,-22.713 22.715,-22.713 12.537,0 22.711,10.177 22.711,22.713 0,12.537 -10.174,22.713 -22.711,22.713 -12.54,0 -22.715,-10.177 -22.715,-22.713 z" /></svg>