<?xml version="1.0" encoding="UTF-8" standalone="no"?>
<svg
   xmlns:v="http://schemas.microsoft.com/visio/2003/SVGExtensions/"
   xmlns:dc="http://purl.org/dc/elements/1.1/"
   xmlns:cc="http://creativecommons.org/ns#"
   xmlns:rdf="http://www.w3.org/1999/02/22-rdf-syntax-ns#"
   xmlns:svg="http://www.w3.org/2000/svg"
   xmlns="http://www.w3.org/2000/svg"
   style="font-size:12px;overflow:visible;color-interpolation-filters:sRGB;fill:none;fill-rule:evenodd;stroke-linecap:square;stroke-miterlimit:3"
   version="1.1"
   id="svg2"
   class="st2"
   xml:space="preserve"
   viewBox="0 0 419.9671 393.41893"
   height="5.4641676in"
   width="5.8328776in"><metadata
     id="metadata42"><rdf:RDF><cc:Work
         rdf:about=""><dc:format>image/svg+xml</dc:format><dc:type
           rdf:resource="http://purl.org/dc/dcmitype/StillImage" /><dc:title></dc:title></cc:Work></rdf:RDF></metadata><defs
     id="defs40" /><v:documentProperties
     v:viewMarkup="false"
     v:metric="true"
     v:langID="1060" /><style
     id="style4"
     type="text/css"><![CDATA[
		.st1 {fill:#d9230f;stroke:none;stroke-linecap:butt;stroke-width:0.6375}
		.st2 {fill:none;fill-rule:evenodd;font-size:12px;overflow:visible;stroke-linecap:square;stroke-miterlimit:3}
	]]></style><g
     transform="translate(-188.4154,-0.64207422)"
     id="g6"
     v:groupContext="foregroundPage"
     v:index="1"
     v:mID="0"><title
       id="title8">Page-1</title><v:pageProperties
       v:shadowOffsetY="-8.50394"
       v:shadowOffsetX="8.50394"
       v:drawingUnits="24"
       v:pageScale="0.0393701"
       v:drawingScale="0.0393701" /><g
       v:groupContext="group"
       v:mID="1"
       transform="translate(183.189,-428.77)"
       id="group1-1"><title
         id="title11">Azure SDK</title><g
         transform="translate(369.127,-344.83)"
         v:groupContext="shape"
         v:mID="4"
         id="shape4-2"><title
           id="title14">Sheet.4</title><path
           style="fill:#d9230f;stroke:none;stroke-width:0.63749999;stroke-linecap:butt"
           id="path16"
           class="st1"
           d="m 9.34,818.16 c -2.8,-2.8 -5.6,-2.8 -7.47,-0.94 -0.94,0.94 -1.87,1.87 -0.94,3.74 0,1.87 0.94,2.81 1.87,3.74 l 6.54,-6.54 z" /></g><g
         transform="translate(0,-179.424)"
         v:groupContext="shape"
         v:mID="5"
         id="shape5-4"><title
           id="title19">Sheet.5</title><path
           style="fill:#d9230f;stroke:none;stroke-width:0.63749999;stroke-linecap:butt"
           id="path21"
           class="st1"
           d="m 123.35,787.32 38.32,37.38 12.15,-12.15 -15.89,-15.88 -7.48,-6.55 39.25,-38.31 4.68,0.93 c 0.93,0 2.8,0 3.73,0 2.81,0 4.68,0 7.48,-0.93 l -23.36,-22.43 -1.87,-1.87 c 8.41,-28.97 0.93,-61.67 -22.43,-84.1 -23.36,-22.43 -57,-29.91 -86.91,-22.43 l 50.46,48.59 -13.08,48.6 -49.53,13.08 -50.46,-49.53 c -8.41,28.97 0,60.74 23.36,84.11 25.23,24.29 60.75,30.84 91.58,21.49 z" /></g><g
         transform="translate(279.415,-260.725)"
         v:groupContext="shape"
         v:mID="6"
         id="shape6-6"><title
           id="title24">Sheet.6</title><path
           style="fill:#d9230f;stroke:none;stroke-width:0.63749999;stroke-linecap:butt"
           id="path26"
           class="st1"
           d="m 2.8,811.62 c -0.93,-0.94 -1.87,-0.94 -2.8,-1.87 0.93,0.93 0.93,1.87 1.87,2.8 l 6.54,12.15 7.48,-6.54 -13.09,-6.54 z" /></g><g
         transform="translate(203.721,-0.934499)"
         v:groupContext="shape"
         v:mID="7"
         id="shape7-8"><title
           id="title29">Sheet.7</title><path
           style="fill:#d9230f;stroke:none;stroke-width:0.63749999;stroke-linecap:butt"
           id="path31"
           class="st1"
           d="m 74.76,642.47 c -0.93,3.74 -0.93,7.48 -0.93,11.22 l 0.93,4.67 -3.74,3.74 -26.16,25.23 -9.35,9.34 L 12.15,674.25 0,686.39 c 23.236008,21.41177 41.651295,38.50553 128.03,123.36 8.41,8.41 18.69,12.15 29.9,12.15 11.21,0 21.49,-3.74 29.9,-12.15 16.83,-15.89 16.83,-42.05 0,-57.94 z" /></g><g
         transform="translate(21.4935,-1.869)"
         v:groupContext="shape"
         v:mID="8"
         id="shape8-10"><title
           id="title34">Sheet.8</title><path
           style="fill:#d9230f;stroke:none;stroke-width:0.63749999;stroke-linecap:butt"
           id="path36"
           class="st1"
           d="m 191.57,653.69 23.36,22.43 26.17,-25.24 c -1.87,-12.14 2.8,-25.23 12.15,-34.57 9.34,-9.35 23.36,-14.02 35.51,-12.15 L 403.7,492.95 339.22,431.28 225.21,542.48 c 0.94,12.15 -2.8,25.23 -12.14,34.58 -10.28,9.34 -23.37,13.08 -35.52,12.15 l -26.16,25.23 23.36,22.43 L 61.68,746.2 57.94,742.46 36.45,759.29 0,815.36 9.34,824.7 67.28,789.19 85.04,767.7 81.3,763.96 Z" /></g></g></g></svg>