<?xml version="1.0" encoding="UTF-8" standalone="no"?>
<svg
   xmlns:v="http://schemas.microsoft.com/visio/2003/SVGExtensions/"
   xmlns:dc="http://purl.org/dc/elements/1.1/"
   xmlns:cc="http://creativecommons.org/ns#"
   xmlns:rdf="http://www.w3.org/1999/02/22-rdf-syntax-ns#"
   xmlns:svg="http://www.w3.org/2000/svg"
   xmlns="http://www.w3.org/2000/svg"
   style="font-size:12px;overflow:visible;color-interpolation-filters:sRGB;fill:none;fill-rule:evenodd;stroke-linecap:square;stroke-miterlimit:3"
   version="1.1"
   id="svg2"
   class="st2"
   xml:space="preserve"
   viewBox="0 0 618.9539 1035.3046"
   height="14.37921in"
   width="8.5965481in"><metadata
     id="metadata27"><rdf:RDF><cc:Work
         rdf:about=""><dc:format>image/svg+xml</dc:format><dc:type
           rdf:resource="http://purl.org/dc/dcmitype/StillImage" /><dc:title></dc:title></cc:Work></rdf:RDF></metadata><defs
     id="defs25" /><v:documentProperties
     v:viewMarkup="false"
     v:metric="true"
     v:langID="1060"><v:userDefs><v:ud
         v:val="VT0(1):26"
         v:nameU="msvNoAutoConnect" /></v:userDefs></v:documentProperties><style
     id="style4"
     type="text/css"><![CDATA[
		.st1 {fill:#d9230f;stroke:none;stroke-linecap:butt;stroke-width:0.75}
		.st2 {fill:none;fill-rule:evenodd;font-size:12px;overflow:visible;stroke-linecap:square;stroke-miterlimit:3}
	]]></style><g
     transform="matrix(2.8915963,0,0,2.8915963,-2307.3862,-456.49826)"
     id="g6"
     v:groupContext="foregroundPage"
     v:index="1"
     v:mID="0"><title
       id="title8">Page-1</title><v:pageProperties
       v:shadowOffsetY="-8.50394"
       v:shadowOffsetX="8.50394"
       v:drawingUnits="24"
       v:pageScale="0.0393701"
       v:drawingScale="0.0393701" /><g
       v:groupContext="group"
       v:mID="19"
       transform="translate(797.953,-1131.87)"
       id="group19-1"><title
         id="title11">Mobile App (was Mobile Services)</title><g
         v:groupContext="shape"
         v:mID="20"
         id="shape20-2"><title
           id="title14">Sheet.20</title><path
           style="fill:#d9230f;stroke:none;stroke-width:0.75;stroke-linecap:butt"
           id="path16"
           class="st1"
           d="m 197.94,1289.82 0.06,-0.08 -181.91,0 0.06,0.08 c -15.9,0.54 -16.15,4.22 -16.14,23.55 l 0.04,311 c 0,19.28 0.24,22.83 16.02,23.34 0,0 4.72,0.07 5.59,0.07 l 170.78,0 c 0.86,0 5.57,-0.07 5.57,-0.07 15.8,-0.51 16.03,-4.07 16.03,-23.34 l 0.02,-311 c 0.04,-19.32 -0.22,-23.01 -16.12,-23.55 z m -116.07,12.12 50.37,-0.01 c 0.94,0.01 1.66,0.99 1.66,1.93 0.03,0.93 -0.73,1.92 -1.66,1.92 l -50.37,0.01 c -0.91,0 -1.67,-0.99 -1.67,-1.93 0,-0.93 0.76,-1.92 1.67,-1.92 z m 1.34,327.31 -12.3,0 c -2.03,-0.01 -3.71,-0.81 -3.71,-2.83 0,-2.06 1.68,-2.82 3.71,-2.82 l 12.3,-0.01 c 2.03,0 3.7,0.77 3.7,2.81 -0.01,2.04 -1.67,2.85 -3.7,2.85 z m 32.27,2.04 -16.79,0 c -2.8,0.01 -5.05,-1.09 -5.07,-3.85 0,-2.8 2.3,-3.85 5.07,-3.85 l 16.77,-0.01 c 2.78,0.01 5.04,1.05 5.05,3.86 0.01,2.77 -2.27,3.85 -5.03,3.85 z m 27.89,-2.09 -12.24,0 c -2.02,0 -3.69,-0.79 -3.69,-2.81 0,-2.05 1.67,-2.81 3.69,-2.81 l 12.24,0 c 2.05,0 3.68,0.77 3.68,2.8 0,2.03 -1.63,2.82 -3.68,2.82 z m 55.3,-36.26 c 0,16.44 -1.57,19.95 -16.85,20.21 l -82.79,0.01 -66.74,-0.01 c -15.27,-0.26 -16.85,-3.77 -16.85,-20.21 L 15.4,1334.19 c 0,-17.12 1.71,-17.2 18.85,-17.2 l 64.78,0 80.8,0 c 17.17,0 18.87,0.08 18.87,17.2 l -0.03,258.75 z" /></g><g
         transform="translate(25.8414,-46.3621)"
         v:groupContext="shape"
         v:mID="21"
         id="shape21-4"><title
           id="title19">Sheet.21</title><path
           style="fill:#d9230f;stroke:none;stroke-width:0.75;stroke-linecap:butt"
           id="path21"
           class="st1"
           d="m 162.42,1391.05 c -0.01,-16.55 -2.12,-16.62 -18.67,-16.62 l -125.52,0.01 C 1.65,1374.44 0,1374.51 0,1391.06 l 0.03,237.18 c 0,16.56 1.66,19.53 18.24,19.54 l 125.5,-0.02 c 16.57,0 18.65,-2.98 18.65,-19.55 l 0,-237.16 z m -86,175.19 -51.46,-29.71 0,-59.62 51.46,29.7 0,59.63 z m -46.5,-97.54 51.29,-29.61 51.64,29.81 -51.31,29.61 -51.62,-29.81 z m 107.56,67.83 -51.46,29.71 0,-59.22 51.46,-29.72 0,59.23 z" /></g></g></g></svg>