<?xml version="1.0" encoding="UTF-8" standalone="no"?>
<svg
   xmlns:v="http://schemas.microsoft.com/visio/2003/SVGExtensions/"
   xmlns:dc="http://purl.org/dc/elements/1.1/"
   xmlns:cc="http://creativecommons.org/ns#"
   xmlns:rdf="http://www.w3.org/1999/02/22-rdf-syntax-ns#"
   xmlns:svg="http://www.w3.org/2000/svg"
   xmlns="http://www.w3.org/2000/svg"
   style="font-size:12px;overflow:visible;color-interpolation-filters:sRGB;fill:none;fill-rule:evenodd;stroke-linecap:square;stroke-miterlimit:3"
   version="1.1"
   id="svg2"
   class="st2"
   xml:space="preserve"
   viewBox="0 0 198.4299 250.74998"
   height="3.4826336in"
   width="2.7559681in"><metadata
     id="metadata113"><rdf:RDF><cc:Work
         rdf:about=""><dc:format>image/svg+xml</dc:format><dc:type
           rdf:resource="http://purl.org/dc/dcmitype/StillImage" /><dc:title></dc:title></cc:Work></rdf:RDF></metadata><defs
     id="defs111" /><v:documentProperties
     v:viewMarkup="false"
     v:metric="true"
     v:langID="1060"><v:userDefs><v:ud
         v:val="VT0(1):26"
         v:nameU="msvNoAutoConnect" /></v:userDefs></v:documentProperties><style
     id="style4"
     type="text/css"><![CDATA[
		.st1 {fill:#d9230f;stroke:none;stroke-linecap:butt;stroke-width:0.75}
		.st2 {fill:none;fill-rule:evenodd;font-size:12px;overflow:visible;stroke-linecap:square;stroke-miterlimit:3}
	]]></style><g
     transform="translate(-717.16524,-240.778)"
     id="g6"
     v:groupContext="foregroundPage"
     v:index="1"
     v:mID="0"><title
       id="title8">Page-1</title><v:pageProperties
       v:shadowOffsetY="-8.50394"
       v:shadowOffsetX="8.50394"
       v:drawingUnits="24"
       v:pageScale="0.0393701"
       v:drawingScale="0.0393701" /><g
       v:groupContext="group"
       v:mID="130"
       transform="translate(717.165,-350.362)"
       id="group130-1"><title
         id="title11">VHD.13</title><g
         v:groupContext="group"
         v:mID="131"
         transform="translate(87.6102,-134.955)"
         id="group131-2"><title
           id="title14">Sheet.131</title><g
           v:groupContext="shape"
           v:mID="132"
           id="shape132-3"><title
             id="title17">Sheet.132</title><ellipse
             style="fill:#d9230f;stroke:none;stroke-width:0.75;stroke-linecap:butt"
             id="ellipse19"
             class="st1"
             ry="11.7107"
             rx="11.6024"
             cy="830.17902"
             cx="11.6024" /></g></g><g
         v:groupContext="group"
         v:mID="133"
         transform="translate(95.1081,-122.265)"
         id="group133-5"><title
           id="title22">Sheet.133</title><g
           v:groupContext="shape"
           v:mID="134"
           id="shape134-6"><title
             id="title25">Sheet.134</title><ellipse
             style="fill:#d9230f;stroke:none;stroke-width:0.75;stroke-linecap:butt"
             id="ellipse27"
             class="st1"
             ry="4.14711"
             rx="4.09975"
             cy="837.74298"
             cx="4.09975" /></g></g><g
         v:groupContext="group"
         v:mID="135"
         transform="translate(75.108,-142.556)"
         id="group135-8"><title
           id="title30">Sheet.135</title><g
           v:groupContext="shape"
           v:mID="136"
           id="shape136-9"><title
             id="title33">Sheet.136</title><circle
             style="fill:#d9230f;stroke:none;stroke-width:0.75;stroke-linecap:butt"
             r="4.09975"
             id="ellipse35"
             class="st1"
             cy="837.78998"
             cx="4.09975" /></g></g><g
         v:groupContext="group"
         v:mID="137"
         transform="translate(80.5594,-128.237)"
         id="group137-11"><title
           id="title38">Sheet.137</title><g
           v:groupContext="shape"
           v:mID="138"
           id="shape138-12"><title
             id="title41">Sheet.138</title><path
             style="fill:#d9230f;stroke:none;stroke-width:0.75;stroke-linecap:butt"
             id="path43"
             class="st1"
             d="m 1.58,834.87 c -1.58,1.57 -1.58,4.26 0,5.84 0.79,0.79 1.81,1.18 2.92,1.18 1.11,0 2.13,-0.39 2.92,-1.18 0.79,-0.79 1.19,-1.82 1.19,-2.92 0,-1.11 -0.4,-2.13 -1.19,-2.92 -1.58,-1.58 -4.26,-1.58 -5.84,0 z" /></g></g><g
         v:groupContext="group"
         v:mID="139"
         transform="translate(80.5709,-156.771)"
         id="group139-14"><title
           id="title46">Sheet.139</title><g
           v:groupContext="shape"
           v:mID="140"
           id="shape140-15"><title
             id="title49">Sheet.140</title><path
             style="fill:#d9230f;stroke:none;stroke-width:0.75;stroke-linecap:butt"
             id="path51"
             class="st1"
             d="m 4.49,841.89 c 1.1,0 2.13,-0.4 2.92,-1.18 0.8,-0.79 1.19,-1.82 1.19,-2.92 0,-1.11 -0.39,-2.13 -1.19,-2.92 -1.57,-1.58 -4.26,-1.58 -5.83,0 -1.58,1.57 -1.58,4.18 0,5.84 0.78,0.78 1.81,1.18 2.91,1.18 z" /></g></g><g
         v:groupContext="group"
         v:mID="141"
         transform="translate(24.6831,-24.8031)"
         id="group141-17"><title
           id="title54">Sheet.141</title><g
           v:groupContext="shape"
           v:mID="142"
           id="shape142-18"><title
             id="title57">Sheet.142</title><ellipse
             style="fill:#d9230f;stroke:none;stroke-width:0.75;stroke-linecap:butt"
             id="ellipse59"
             class="st1"
             ry="10.1073"
             rx="10.0126"
             cy="831.78198"
             cx="10.0126" /></g></g><g
         v:groupContext="group"
         v:mID="143"
         transform="translate(108.853,-156.771)"
         id="group143-20"><title
           id="title62">Sheet.143</title><g
           v:groupContext="shape"
           v:mID="144"
           id="shape144-21"><title
             id="title65">Sheet.144</title><path
             style="fill:#d9230f;stroke:none;stroke-width:0.75;stroke-linecap:butt"
             id="path67"
             class="st1"
             d="m 4.49,841.89 c 1.1,0 2.13,-0.4 2.92,-1.18 0.8,-0.79 1.19,-1.82 1.19,-2.92 0,-1.11 -0.39,-2.13 -1.19,-2.92 -1.57,-1.58 -4.26,-1.58 -5.83,0 -1.58,1.57 -1.58,4.18 0,5.84 0.78,0.78 1.81,1.18 2.91,1.18 z" /></g></g><g
         v:groupContext="group"
         v:mID="145"
         transform="translate(95.1081,-162.657)"
         id="group145-23"><title
           id="title70">Sheet.145</title><g
           v:groupContext="shape"
           v:mID="146"
           id="shape146-24"><title
             id="title73">Sheet.146</title><ellipse
             style="fill:#d9230f;stroke:none;stroke-width:0.75;stroke-linecap:butt"
             id="ellipse75"
             class="st1"
             ry="4.1403399"
             rx="4.09975"
             cy="837.74902"
             cx="4.09975" /></g></g><g
         v:groupContext="group"
         v:mID="147"
         id="group147-26"><title
           id="title78">Sheet.147</title><g
           v:groupContext="shape"
           v:mID="148"
           id="shape148-27"><title
             id="title81">Sheet.148</title><path
             style="fill:#d9230f;stroke:none;stroke-width:0.75;stroke-linecap:butt"
             id="path83"
             class="st1"
             d="m 191.95,591.14 -185.56,0 c -3.47,0 -6.39,2.91 -6.39,6.54 l 0,237.74 c 0,3.55 2.92,6.47 6.39,6.47 l 185.56,0 c 3.55,0 6.48,-2.92 6.48,-6.47 l 0,-237.74 c 0,-3.62 -2.93,-6.54 -6.48,-6.54 z M 7.97,603.06 c 0,-3.08 2.52,-5.61 5.6,-5.61 3,0 5.53,2.52 5.53,5.61 0,3.07 -2.53,5.6 -5.53,5.6 -3.08,0 -5.6,-2.53 -5.6,-5.6 z m 46.41,214.84 0,0.16 c -3.87,6.94 -11.21,11.68 -19.65,11.68 -12.47,0 -22.5,-10.18 -22.5,-22.73 0,-6.4 2.61,-12.16 6.79,-16.26 l 47.91,-48.62 c 2.13,-2.13 5.05,-3.47 8.29,-3.47 6.39,0 11.6,5.21 11.6,11.68 0,1.82 -0.47,3.55 -1.27,5.13 l 0.08,0 -30.93,61.88 c -0.08,0.15 -0.17,0.39 -0.32,0.55 z m 44.36,-43.49 c -4.82,0 -9.55,-0.48 -14.13,-1.27 l 7.26,-14.44 c 0.16,-0.4 0.24,-0.64 0.39,-1.03 1.03,-2.37 1.51,-4.82 1.51,-7.34 0,-10.34 -8.29,-18.78 -18.55,-18.78 -5.06,0 -9.71,1.97 -13.26,5.6 L 45.7,753.57 C 30.07,739.13 20.28,718.37 20.28,695.24 20.28,651.43 55.41,616 98.74,616 c 43.33,0 78.53,35.43 78.53,79.24 0,43.73 -35.2,79.17 -78.53,79.17 z m 85.24,59.27 c -3.08,0 -5.6,-2.52 -5.6,-5.6 0,-3.08 2.52,-5.61 5.6,-5.61 3.08,0 5.53,2.53 5.53,5.61 -0.01,3.08 -2.45,5.6 -5.53,5.6 z m 0,-225.02 c -3.08,0 -5.6,-2.53 -5.6,-5.6 0,-3.08 2.52,-5.61 5.6,-5.61 3.08,0 5.53,2.52 5.53,5.61 -0.01,3.07 -2.45,5.6 -5.53,5.6 z" /></g></g><g
         v:groupContext="group"
         v:mID="149"
         transform="translate(108.853,-128.237)"
         id="group149-29"><title
           id="title86">Sheet.149</title><g
           v:groupContext="shape"
           v:mID="150"
           id="shape150-30"><title
             id="title89">Sheet.150</title><path
             style="fill:#d9230f;stroke:none;stroke-width:0.75;stroke-linecap:butt"
             id="path91"
             class="st1"
             d="m 1.58,834.87 c -1.58,1.57 -1.58,4.26 0,5.84 0.79,0.79 1.81,1.18 2.92,1.18 1.11,0 2.13,-0.39 2.92,-1.18 0.79,-0.79 1.19,-1.82 1.19,-2.92 0,-1.11 -0.4,-2.13 -1.19,-2.92 -1.58,-1.58 -4.27,-1.58 -5.84,0 z" /></g></g><g
         v:groupContext="group"
         v:mID="151"
         transform="translate(61.8531,-109.457)"
         id="group151-32"><title
           id="title94">Sheet.151</title><g
           v:groupContext="shape"
           v:mID="152"
           id="shape152-33"><title
             id="title97">Sheet.152</title><path
             style="fill:#d9230f;stroke:none;stroke-width:0.75;stroke-linecap:butt"
             id="path99"
             class="st1"
             d="M 36.86,767.46 C 16.49,767.46 0,784.11 0,804.63 c 0,20.6 16.49,37.26 36.86,37.26 20.44,0 36.94,-16.66 36.94,-37.26 0,-20.52 -16.5,-37.17 -36.94,-37.17 z m 0.47,67.09 c -16.34,0 -29.52,-13.42 -29.52,-29.92 0,-16.42 13.18,-29.75 29.52,-29.75 16.34,0 29.6,13.34 29.6,29.75 0,16.5 -13.26,29.92 -29.6,29.92 z" /></g></g><g
         v:groupContext="group"
         v:mID="153"
         transform="translate(115.104,-142.473)"
         id="group153-35"><title
           id="title102">Sheet.153</title><g
           v:groupContext="shape"
           v:mID="154"
           id="shape154-36"><title
             id="title105">Sheet.154</title><ellipse
             style="fill:#d9230f;stroke:none;stroke-width:0.75;stroke-linecap:butt"
             id="ellipse107"
             class="st1"
             ry="4.1403399"
             rx="4.1065202"
             cy="837.74902"
             cx="4.1065202" /></g></g></g></g></svg>