<?xml version="1.0" encoding="UTF-8" standalone="no"?>
<svg
   xmlns:v="http://schemas.microsoft.com/visio/2003/SVGExtensions/"
   xmlns:dc="http://purl.org/dc/elements/1.1/"
   xmlns:cc="http://creativecommons.org/ns#"
   xmlns:rdf="http://www.w3.org/1999/02/22-rdf-syntax-ns#"
   xmlns:svg="http://www.w3.org/2000/svg"
   xmlns="http://www.w3.org/2000/svg"
   style="font-size:12px;overflow:visible;color-interpolation-filters:sRGB;fill:none;fill-rule:evenodd;stroke-linecap:square;stroke-miterlimit:3"
   version="1.1"
   id="svg2"
   class="st2"
   xml:space="preserve"
   viewBox="0 0 219.68599 144.55988"
   height="2.0077758in"
   width="3.0511916in"><metadata
     id="metadata47"><rdf:RDF><cc:Work
         rdf:about=""><dc:format>image/svg+xml</dc:format><dc:type
           rdf:resource="http://purl.org/dc/dcmitype/StillImage" /><dc:title></dc:title></cc:Work></rdf:RDF></metadata><defs
     id="defs45" /><v:documentProperties
     v:viewMarkup="false"
     v:metric="true"
     v:langID="1060" /><style
     id="style4"
     type="text/css"><![CDATA[
		.st1 {fill:#d9230f;stroke:none;stroke-linecap:butt;stroke-width:0.6375}
		.st2 {fill:none;fill-rule:evenodd;font-size:12px;overflow:visible;stroke-linecap:square;stroke-miterlimit:3}
	]]></style><g
     transform="translate(-191.688,-8.0642197)"
     id="g6"
     v:groupContext="foregroundPage"
     v:index="1"
     v:mID="0"><title
       id="title8">Page-1</title><v:pageProperties
       v:shadowOffsetY="-8.50394"
       v:shadowOffsetX="8.50394"
       v:drawingUnits="24"
       v:pageScale="0.0393701"
       v:drawingScale="0.0393701" /><g
       v:groupContext="group"
       v:mID="1388"
       transform="translate(191.688,-429.896)"
       id="group1388-1"><title
         id="title11">Hybrid connection manager for BizTalk Hybrid Connection</title><g
         transform="translate(172.447,-56.9132)"
         v:groupContext="shape"
         v:mID="1389"
         id="shape1389-2"><title
           id="title14">Sheet.1389</title><path
           style="fill:#d9230f;stroke:none;stroke-width:0.63749999;stroke-linecap:butt"
           id="path16"
           class="st1"
           d="m 0,582.52 c 0.06,0 0.06,0 0,0 0.06,0 0.06,0 0.57,0 l -0.57,0 z" /></g><g
         transform="translate(172.447,-84.2316)"
         v:groupContext="shape"
         v:mID="1390"
         id="shape1390-4"><title
           id="title19">Sheet.1390</title><path
           style="fill:#d9230f;stroke:none;stroke-width:0.63749999;stroke-linecap:butt"
           id="path21"
           class="st1"
           d="m 0,582.52 0.57,0 c -0.51,0 -0.51,0 -0.57,0 z" /></g><g
         transform="translate(159.926,-56.9132)"
         v:groupContext="shape"
         v:mID="1391"
         id="shape1391-6"><title
           id="title24">Sheet.1391</title><path
           style="fill:#d9230f;stroke:none;stroke-width:0.63749999;stroke-linecap:butt"
           id="path26"
           class="st1"
           d="m 0,568.86 c 0,-7.39 5.69,-13.09 12.52,-13.65 0,0 0,0 0.57,0 0,0 0.57,0 0.57,0 l 32.44,0 c 7.4,0 13.66,6.26 13.66,13.65 0,7.4 -6.26,13.66 -13.66,13.66 l -32.44,0 c 0,0 -0.57,0 -0.57,0 0,0 0,0 -0.57,0 C 5.69,581.95 0,575.69 0,568.86 Z" /></g><g
         transform="translate(172.447,-56.9132)"
         v:groupContext="shape"
         v:mID="1392"
         id="shape1392-8"><title
           id="title29">Sheet.1392</title><path
           style="fill:#d9230f;stroke:none;stroke-width:0.63749999;stroke-linecap:butt"
           id="path31"
           class="st1"
           d="m 0,582.52 c 0.06,0 0.06,0 0,0 0.06,0 0.06,0 0,0 z" /></g><g
         transform="translate(173.016,-84.2316)"
         v:groupContext="shape"
         v:mID="1393"
         id="shape1393-10"><title
           id="title34">Sheet.1393</title><path
           style="fill:#d9230f;stroke:none;stroke-width:0.63749999;stroke-linecap:butt"
           id="path36"
           class="st1"
           d="m 0,582.52 c 0,0 0,0 0,0 0,0 0,0 0,0 z" /></g><g
         v:groupContext="shape"
         v:mID="1394"
         id="shape1394-12"><title
           id="title39">Sheet.1394</title><path
           style="fill:#d9230f;stroke:none;stroke-width:0.63749999;stroke-linecap:butt"
           id="path41"
           class="st1"
           d="m 92.77,510.81 c 0,-15.36 12.52,-27.32 27.32,-27.32 14.79,0 27.32,12.53 27.32,27.32 0,14.8 -12.53,27.32 -27.32,27.32 -14.8,0 -27.32,-12.52 -27.32,-27.32 z m -79.11,14.8 c 0,0 0,0 0,0 0.57,0 0.57,0 0.57,0 l 32.44,0 c 1.14,0 2.28,0 2.84,-0.57 6.83,33.01 35.86,57.48 70.58,57.48 19.35,0 36.42,-7.4 49.51,-19.92 2.28,-2.27 3.99,-5.69 3.99,-9.67 0,-7.4 -6.27,-13.66 -13.66,-13.66 -2.28,0 -4.56,0.57 -6.26,1.71 -1.71,1.7 -3.42,3.41 -5.13,4.55 -7.96,6.26 -17.64,10.24 -28.45,10.24 -25.04,0 -45.53,-20.48 -45.53,-45.53 0,-25.04 20.49,-45.53 45.53,-45.53 12.52,0 23.9,5.13 31.87,13.09 0,0 0,0 0,0 1.14,1.14 1.71,1.71 2.84,2.85 0,0 0,0 0,0 2.28,1.71 5.13,2.84 8.54,2.84 7.4,0 13.66,-6.26 13.66,-13.65 0,-2.28 -0.57,-4.56 -1.71,-6.27 -1.7,-1.7 -2.84,-3.41 -4.55,-5.12 -13.09,-12.52 -30.73,-20.49 -50.65,-20.49 -35.86,0 -65.45,26.18 -71.14,60.33 -0.57,0 -1.71,0 -2.85,0 l -32.44,0 c 0,0 -0.57,0 -0.57,0 0,0 0,0 -0.57,0 C 5.69,498.86 0,504.55 0,511.95 c 1.14,6.83 6.83,13.09 13.66,13.66 z" /></g></g></g></svg>