<?xml version="1.0" encoding="UTF-8" standalone="no"?>
<svg
   xmlns:dc="http://purl.org/dc/elements/1.1/"
   xmlns:cc="http://creativecommons.org/ns#"
   xmlns:rdf="http://www.w3.org/1999/02/22-rdf-syntax-ns#"
   xmlns:svg="http://www.w3.org/2000/svg"
   xmlns="http://www.w3.org/2000/svg"
   xmlns:xlink="http://www.w3.org/1999/xlink"
   id="svg2"
   width="22px"
   viewBox="0 0 22 22"
   version="1.1"
   height="22px">
  <metadata
     id="metadata17">
    <rdf:RDF>
      <cc:Work
         rdf:about="">
        <dc:format>image/svg+xml</dc:format>
        <dc:type
           rdf:resource="http://purl.org/dc/dcmitype/StillImage" />
        <dc:title></dc:title>
      </cc:Work>
    </rdf:RDF>
  </metadata>
  <defs
     id="defs6">
    <path
       id="path-1"
       d="M0,11 C0,4.92486745 4.92486745,0 11,0 C17.0751325,0 22,4.92486745 22,11 C22,17.0751325 17.0751325,22 11,22 C4.92486745,22 0,17.0751325 0,11 L0,11 Z M21,11 C21,5.47715225 16.5228478,1 11,1 C5.47715225,1 1,5.47715225 1,11 C1,16.5228478 5.47715225,21 11,21 C16.5228478,21 21,16.5228478 21,11 L21,11 Z M11,16.5 L15,13.5 L15,12.5 L11.4984375,15.25 L11.4984374,5.5 L10.5,5.5 L10.5,15.25 L7,12.5 L7,13.5 L11,16.5 L11,16.5 Z" />
  </defs>
  <g
     style="fill:none;fill-rule:evenodd;stroke:none;stroke-width:1"
     transform="matrix(0,-1,1,0,0,22)"
     id="miu">
    <g
       id="circle_arrow-down_download_outline_stroke">
      <use
         height="100%"
         width="100%"
         y="0"
         x="0"
         style="fill:#d9230f;fill-rule:evenodd"
         id="use11"
         xlink:href="#path-1" />
      <use
         height="100%"
         width="100%"
         y="0"
         x="0"
         style="fill:none"
         id="use13"
         xlink:href="#path-1" />
    </g>
  </g>
</svg>
