<?xml version="1.0" encoding="UTF-8" standalone="no"?>
<svg
   xmlns:dc="http://purl.org/dc/elements/1.1/"
   xmlns:cc="http://creativecommons.org/ns#"
   xmlns:rdf="http://www.w3.org/1999/02/22-rdf-syntax-ns#"
   xmlns:svg="http://www.w3.org/2000/svg"
   xmlns="http://www.w3.org/2000/svg"
   enable-background="new 0 0 56.693 56.693"
   height="49.77"
   id="Layer_1"
   version="1.1"
   viewBox="0 0 49.571998 49.77"
   width="49.571999"
   xml:space="preserve"><metadata
     id="metadata9"><rdf:RDF><cc:Work
         rdf:about=""><dc:format>image/svg+xml</dc:format><dc:type
           rdf:resource="http://purl.org/dc/dcmitype/StillImage" /><dc:title></dc:title></cc:Work></rdf:RDF></metadata><defs
     id="defs7" /><path
     d="m 0.008,26.45 c 6.19,0 12.009,2.418 16.382,6.816 4.381,4.398 6.793,10.256 6.793,16.492 l 9.539,0 C 32.722,31.645 18.046,16.91 0.008,16.91 l 0,9.54 z M 0.023,9.539 c 22.061,0 40.01,18.047 40.01,40.231 l 9.539,0 C 49.572,22.325 27.343,0 0.023,0 l 0,9.539 z m 13.191,33.567 c 0,3.648 -2.959,6.607 -6.607,6.607 C 2.959,49.713 0,46.755 0,43.106 c 0,-3.65 2.958,-6.607 6.606,-6.607 3.648,0 6.608,2.957 6.608,6.607 z"
     id="path3"
     style="fill:#44444f;fill-opacity:0.94117647" /></svg>