<?xml version="1.0" encoding="UTF-8" standalone="no"?>
<svg
   xmlns:dc="http://purl.org/dc/elements/1.1/"
   xmlns:cc="http://creativecommons.org/ns#"
   xmlns:rdf="http://www.w3.org/1999/02/22-rdf-syntax-ns#"
   xmlns:svg="http://www.w3.org/2000/svg"
   xmlns="http://www.w3.org/2000/svg"
   height="67.677963"
   version="1.1"
   viewBox="0 0 47.625237 67.677963"
   width="47.625237"
   id="svg2">
  <metadata
     id="metadata15">
    <rdf:RDF>
      <cc:Work
         rdf:about="">
        <dc:format>image/svg+xml</dc:format>
        <dc:type
           rdf:resource="http://purl.org/dc/dcmitype/StillImage" />
        <dc:title></dc:title>
      </cc:Work>
    </rdf:RDF>
  </metadata>
  <desc
     id="desc6" />
  <defs
     id="defs8" />
  <g
     id="Page-1"
     transform="matrix(2.5065913,0,0,2.5065913,-17.546139,-7.5197739)"
     style="fill:none;fill-rule:evenodd;stroke:none;stroke-width:1">
    <g
       id="icon-109-document-zip"
       style="fill:#157efb">
      <path
         d="M 13,18.04962 13,17 l -1,0 0,-1 1,0 0,-1 -1,0 0,-1 1,0 0,-1 -1,0 0,-1 1,0 0,-1 -1,0 0,-1 1,0 0,-1 -1,0 0,-1 1,0 0,-1 -1,0 0,-1 1,0 0,-1 -1,0 0,-1 -3.0044225,0 C 8.4457352,4 8,4.4552629 8,4.995457 L 8,28.004543 C 8,28.554319 8.4547089,29 8.9999602,29 L 24.00004,29 C 24.552303,29 25,28.555054 25,28.006602 L 25,11 20.997913,11 C 19.894496,11 19,10.113445 19,8.994081 L 19,4 l -5,0 0,0 0,1 1,0 0,1 -1,0 0,1 1,0 0,1 -1,0 0,1 1,0 0,1 -1,0 0,1 1,0 0,1 -1,0 0,1 1,0 0,1 -1,0 0,1 1,0 0,1 -1,0 0,1 0,1.049455 c 1.147145,0.230576 2,1.240099 2,2.450545 0,1.390338 -1.119288,2.5 -2.5,2.5 -1.390338,0 -2.5,-1.119288 -2.5,-2.5 0,-1.217911 0.85888,-2.220447 2,-2.45038 l 0,0 0,0 z M 26,10 26,28.009205 C 26,29.101788 25.105724,30 24.002578,30 L 8.9974219,30 C 7.8909254,30 7,29.101288 7,27.99267 L 7,5.0073299 C 7,3.8983383 7.8966662,3 9.0027601,3 L 20,3 l 6,7 0,0 0,0 z M 20,4.5 20,8.9912152 C 20,9.5483517 20.450651,10 20.996739,10 L 24.699951,10 20,4.5 l 0,0 z M 13.5,19 C 12.671573,19 12,19.665797 12,20.5 12,21.328427 12.665797,22 13.5,22 14.328427,22 15,21.334203 15,20.5 15,19.671573 14.334203,19 13.5,19 l 0,0 z"
         id="document-zip"
         style="fill:#d9230f;fill-opacity:1" />
    </g>
  </g>
</svg>
